<svg width="18" height="18" viewBox="0 0 18 18" fill="none" xmlns="http://www.w3.org/2000/svg">
<path d="M16.9596 14.5597L3.08752 1.0158C2.81159 0.74639 2.46069 0.572276 2.11201 0.53171C1.76333 0.491144 1.44544 0.587448 1.22827 0.799485L0.81884 1.19923C0.601667 1.41126 0.503029 1.72164 0.544578 2.06207C0.586127 2.4025 0.764458 2.7451 1.04039 3.01451L14.9124 16.5585C15.1884 16.8279 15.5393 17.002 15.888 17.0426C16.2367 17.0832 16.5545 16.9868 16.7717 16.7748L17.1811 16.375C17.3983 16.163 17.497 15.8527 17.4554 15.5122C17.4139 15.1718 17.2355 14.8291 16.9596 14.5597Z" fill="#CED41E"/>
<path fill-rule="evenodd" clip-rule="evenodd" d="M1.0404 14.9862L14.9125 1.44221C15.1884 1.17281 15.5393 0.998629 15.888 0.958063C16.2367 0.917498 16.5545 1.01386 16.7717 1.2259L17.1811 1.62564C17.3983 1.83768 17.497 2.14799 17.4555 2.48843C17.4139 2.82886 17.2355 3.17152 16.9596 3.44092L3.08754 16.9849C2.8116 17.2543 2.4607 17.4284 2.11203 17.469C1.76335 17.5095 1.44545 17.4132 1.22828 17.2012L0.818853 16.8014C0.60168 16.5894 0.503042 16.279 0.544591 15.9386C0.586139 15.5982 0.764471 15.2556 1.0404 14.9862Z" fill="#CED41E"/>
</svg>
